# xmcd
# Track frame offsets:
# 150
# 10537
# 23958
# 36437
# 48505
# 59943
# 73556
# 85333
# 97312
# 110056
# 124507
# 152450
# 165023
# 178652
# 191079
#
# Disc length: 2787 seconds
# Revision: 0
# Processed by: cddbd v1.5.1PL0 Copyright (c) Steve Scherf et al.
# Submitted via: VisiTrax 2.9.10.228 - For more info visit www.synapsa.com
#
DISCID=c90ae10f
DTITLE=Multiple - The Classic Rhythm and Blues Collection (1967-1969) disk 2
DYEAR=2005
DGENRE=Blues
TTITLE0=Marvin Gaye and Tamumui Terrell - Ain't Nothing Like the Real Thing
TTITLE1=The Temptations - I Can't Get Next to You
TTITLE2=Artha Franklin - I Never Loved a Man (The Way I Love You)
TTITLE3=Sam and Dave - Soul Man
TTITLE4=Junior Walker and the All - Stars
TTITLE5=Marvin Gaye - Too Busy Thinking About My Baby
TTITLE6=Clarence Carter - Slip Away
TTITLE7=Hugh Masekela - Grazing in the Grass
TTITLE8=Tyrone Davis - Can I Change My Mind
TTITLE9=Archie Bell and the Drells - Tighten Up
TTITLE10=The Dells - Stay in My Corner
TTITLE11=Joe Simon - The Chokin Kind
TTITLE12=The Four Tops - Bernadette
TTITLE13=Jerry Butler - Hey, Western Union Man
TTITLE14=The Dells - Oh, What a Nite
EXTD=
EXTT0=
EXTT1=
EXTT2=
EXTT3=
EXTT4=
EXTT5=
EXTT6=
EXTT7=
EXTT8=
EXTT9=
EXTT10=
EXTT11=
EXTT12=
EXTT13=
EXTT14=
PLAYORDER=
